<svg xmlns="http://www.w3.org/2000/svg" id="Layer_1" data-name="Layer 1" viewBox="0 0 512 512"><defs><style>.cls-2{fill:#5ad74f;}.cls-3{fill:#f15d68;}</style></defs><path class="cls-2" d="M180.76,469.89q-28.92,0-57.83.11c-1.24,0-1.71-.38-1.57-1.6a17.8,17.8,0,0,0,0-1.79c0-47.17.15-94.34-.1-141.51-.07-13.92,4.23-26.07,12.07-37.23a92.31,92.31,0,0,1,14.82-16.53c-.47-.89-1.24-.47-1.81-.47-7.59,0-15.18-.09-22.77,0-1.8,0-2.25-.46-2.25-2.25,0-50.07,0-100.14.11-150.21,0-12,5.08-22.47,11.82-32.14A99.37,99.37,0,0,1,152.1,66.22c14.84-12.13,31.81-20,47-22.88A68.1,68.1,0,0,1,212,42q81,.1,162,0c2.32,0,2.92.56,2.91,2.9-.13,18.84-.12,37.69-.14,56.54H230.61a31.89,31.89,0,0,0-11.24,1.94c-12.77,4.75-22.26,13.62-30.09,24.41a44.47,44.47,0,0,0-8.61,27.19c.21,30.87.08,61.75.09,92.63,0,3,0,3,2.68,1.94a83.91,83.91,0,0,1,31.11-5.84c10.23.16,20.47,0,30.7,0,1,0,2,.08,3.06.08q62.83,0,125.65-.05c2.32,0,2.92.56,2.91,2.9-.13,18.84-.12,37.69-.14,56.54H230.65A32.09,32.09,0,0,0,219.41,305c-12.77,4.74-22.26,13.61-30.1,24.39a44.47,44.47,0,0,0-8.63,27.17C180.86,394.34,180.75,432.12,180.76,469.89Z"/><path class="cls-3" d="M180.76,469.89c0-37.77.1-75.55-.08-113.32a44.47,44.47,0,0,1,8.63-27.17c7.84-10.78,17.33-19.65,30.1-24.39a32.09,32.09,0,0,1,11.24-1.92H376.73c0,20,0,40.1.13,60.14,0,2.17-1.21,1.79-2.44,1.79H305.57c-19.28,0-38.56,0-57.84-.05-2,0-2.53.51-2.53,2.52.07,33.19,0,66.38.1,99.56,0,2.25-.45,3-2.87,3C221.87,469.9,201.31,469.92,180.76,469.89Z"/><path class="cls-3" d="M245.25,243.63c-10.23,0-20.47.2-30.7,0a83.91,83.91,0,0,0-31.11,5.84c-2.69,1-2.68,1-2.68-1.94,0-30.88.12-61.76-.09-92.63a44.47,44.47,0,0,1,8.61-27.19c7.83-10.79,17.32-19.66,30.09-24.41a31.89,31.89,0,0,1,11.24-1.94H376.73c0,20,0,40.1.13,60.14,0,2.39-1.48,1.78-2.7,1.78q-49.65,0-99.3,0c-9,0-18.09.06-27.13,0-2,0-2.53.51-2.53,2.52Q245.31,204.73,245.25,243.63Z"/></svg>